<?xml version="1.0" encoding="utf-8"?>
<!-- Generator: Adobe Illustrator 16.0.4, SVG Export Plug-In . SVG Version: 6.00 Build 0)  -->
<!DOCTYPE svg PUBLIC "-//W3C//DTD SVG 1.1//EN" "http://www.w3.org/Graphics/SVG/1.1/DTD/svg11.dtd">
<svg version="1.1" id="Layer_1" xmlns="http://www.w3.org/2000/svg" xmlns:xlink="http://www.w3.org/1999/xlink" x="0px" y="0px"
	 width="935.433px" height="340.158px" viewBox="0 0 935.433 340.158" enable-background="new 0 0 935.433 340.158"
	 xml:space="preserve">
<g id="_x32_2mini">
	<g>
		<path fill="none" stroke="#000000" stroke-width="0.147" d="M20.41,306.057c0,7.826,6.346,14.173,14.173,14.173h866.267
			c7.826,0,14.174-6.347,14.174-14.173V34.102c0-7.828-6.348-14.173-14.174-14.173H34.583c-7.828,0-14.173,6.346-14.173,14.173
			V306.057z"/>
	</g>
	<g id="screw_holes">
		<path display="none" fill="none" stroke="#000000" stroke-width="0.1417" d="M568.093,305.619l2.252-5.053 M570.345,300.567
			l5.055-2.308 M575.4,298.26l5.105,2.308 M580.505,300.567l2.252,5.054 M582.757,305.619l-2.252,5.053 M580.505,310.672
			l-5.105,2.252 M575.4,312.924l-5.055-2.252 M570.345,310.672l-2.252-5.053"/>
		<path display="none" fill="none" stroke="#000000" stroke-width="0.1417" d="M237.453,305.619l2.252-5.053 M239.704,300.567
			l5.656-2.308 M245.361,298.26l5.053,2.308 M250.413,300.567l2.252,5.054 M252.665,305.619l-2.252,5.053 M250.413,310.672
			l-5.053,2.252 M245.361,312.924l-5.656-2.252 M239.704,310.672l-2.252-5.053"/>
		<g>
			<circle fill="none" stroke="#000000" stroke-width="0.1417" cx="35.018" cy="34.276" r="4.252"/>
		</g>
		<g>
			<circle fill="none" stroke="#000000" stroke-width="0.1417" cx="144.116" cy="34.277" r="4.252"/>
		</g>
		<g>
			<circle fill="none" stroke="#000000" stroke-width="0.1417" cx="359.758" cy="34.276" r="4.252"/>
		</g>
		<g>
			<circle fill="none" stroke="#000000" stroke-width="0.1417" cx="575.701" cy="34.276" r="4.252"/>
		</g>
		<g>
			<circle fill="none" stroke="#000000" stroke-width="0.1417" cx="737.66" cy="34.276" r="4.252"/>
		</g>
		<g>
			<circle fill="none" stroke="#000000" stroke-width="0.1417" cx="900.414" cy="34.276" r="4.252"/>
		</g>
		<g>
			<circle fill="none" stroke="#000000" stroke-width="0.1417" cx="900.414" cy="305.593" r="4.252"/>
		</g>
		<g>
			<circle fill="none" stroke="#000000" stroke-width="0.1417" cx="35.018" cy="305.593" r="4.252"/>
		</g>
	</g>
</g>
<g id="AEK_II">
	<polygon fill="none" stroke="#000000" stroke-width="0.1417" points="306.471,290.375 306.471,304.709 313.601,304.709 
		313.601,290.375 	"/>
	<polygon fill="none" stroke="#000000" stroke-width="0.1417" points="563.289,290.375 563.289,304.709 570.417,304.709 
		570.417,290.375 	"/>
	<polygon fill="none" stroke="#000000" stroke-width="0.1417" points="52.048,261.256 52.048,297.115 95.843,297.115 
		95.843,261.256 	"/>
	<polygon fill="none" stroke="#000000" stroke-width="0.1417" points="126.297,261.256 126.297,297.115 170.094,297.115 
		170.094,261.256 	"/>
	<polygon fill="none" stroke="#000000" stroke-width="0.1417" points="200.549,261.256 200.549,297.115 244.344,297.115 
		244.344,261.256 	"/>
	<polygon fill="none" stroke="#000000" stroke-width="0.1417" points="416.549,261.256 416.549,297.115 460.34,297.115 
		460.34,261.256 	"/>
	<polygon fill="none" stroke="#000000" stroke-width="0.1417" points="619.046,261.256 619.046,297.115 662.841,297.115 
		662.841,261.256 	"/>
	<polygon fill="none" stroke="#000000" stroke-width="0.1417" points="679.796,261.256 679.796,297.115 723.591,297.115 
		723.591,261.256 	"/>
	<polygon fill="none" stroke="#000000" stroke-width="0.1417" points="740.548,261.256 740.548,297.115 784.343,297.115 
		784.343,261.256 	"/>
	<polygon fill="none" stroke="#000000" stroke-width="0.1417" points="794.548,261.256 794.548,297.115 838.343,297.115 
		838.343,261.256 	"/>
	<polygon fill="none" stroke="#000000" stroke-width="0.1417" points="848.548,261.256 848.548,297.115 892.343,297.115 
		892.343,261.256 	"/>
	<polygon fill="none" stroke="#000000" stroke-width="0.1417" points="52.048,207.256 52.048,243.115 95.843,243.115 
		95.843,207.256 	"/>
	<polygon fill="none" stroke="#000000" stroke-width="0.1417" points="119.545,207.256 119.545,243.115 163.345,243.115 
		163.345,207.256 	"/>
	<polygon fill="none" stroke="#000000" stroke-width="0.1417" points="173.545,207.256 173.545,243.115 217.342,243.115 
		217.342,207.256 	"/>
	<polygon fill="none" stroke="#000000" stroke-width="0.1417" points="227.549,207.256 227.549,243.115 271.342,243.115 
		271.342,207.256 	"/>
	<polygon fill="none" stroke="#000000" stroke-width="0.1417" points="281.549,207.256 281.549,243.115 325.341,243.115 
		325.341,207.256 	"/>
	<polygon fill="none" stroke="#000000" stroke-width="0.1417" points="335.545,207.256 335.545,243.115 379.341,243.115 
		379.341,207.256 	"/>
	<polygon fill="none" stroke="#000000" stroke-width="0.1417" points="389.545,207.256 389.545,243.115 433.34,243.115 
		433.34,207.256 	"/>
	<polygon fill="none" stroke="#000000" stroke-width="0.1417" points="443.548,207.256 443.548,243.115 487.344,243.115 
		487.344,207.256 	"/>
	<polygon fill="none" stroke="#000000" stroke-width="0.1417" points="497.548,207.256 497.548,243.115 541.343,243.115 
		541.343,207.256 	"/>
	<polygon fill="none" stroke="#000000" stroke-width="0.1417" points="551.548,207.256 551.548,243.115 595.343,243.115 
		595.343,207.256 	"/>
	<polygon fill="none" stroke="#000000" stroke-width="0.1417" points="605.548,207.256 605.548,243.115 649.343,243.115 
		649.343,207.256 	"/>
	<polygon fill="none" stroke="#000000" stroke-width="0.1417" points="659.548,207.256 659.548,243.115 703.343,243.115 
		703.343,207.256 	"/>
	<polygon fill="none" stroke="#000000" stroke-width="0.1417" points="727.046,207.256 727.046,243.115 770.841,243.115 
		770.841,207.256 	"/>
	<polygon fill="none" stroke="#000000" stroke-width="0.1417" points="794.548,207.256 794.548,243.115 838.343,243.115 
		838.343,207.256 	"/>
	<polygon fill="none" stroke="#000000" stroke-width="0.1417" points="848.548,207.256 848.548,243.115 892.343,243.115 
		892.343,207.256 	"/>
	<polygon fill="none" stroke="#000000" stroke-width="0.1417" points="43.92,182.377 43.92,196.711 51.056,196.711 51.056,182.377 	
		"/>
	<polygon fill="none" stroke="#000000" stroke-width="0.1417" points="123.837,182.377 123.837,196.711 130.97,196.711 
		130.97,182.377 	"/>
	<polygon fill="none" stroke="#000000" stroke-width="0.1417" points="65.549,153.256 65.549,189.115 109.345,189.115 
		109.345,153.256 	"/>
	<polygon fill="none" stroke="#000000" stroke-width="0.1417" points="146.549,153.256 146.549,189.115 190.344,189.115 
		190.344,153.256 	"/>
	<polygon fill="none" stroke="#000000" stroke-width="0.1417" points="200.549,153.256 200.549,189.115 244.344,189.115 
		244.344,153.256 	"/>
	<polygon fill="none" stroke="#000000" stroke-width="0.1417" points="254.549,153.256 254.549,189.115 298.342,189.115 
		298.342,153.256 	"/>
	<polygon fill="none" stroke="#000000" stroke-width="0.1417" points="308.549,153.256 308.549,189.115 352.341,189.115 
		352.341,153.256 	"/>
	<polygon fill="none" stroke="#000000" stroke-width="0.1417" points="362.549,153.256 362.549,189.115 406.344,189.115 
		406.344,153.256 	"/>
	<polygon fill="none" stroke="#000000" stroke-width="0.1417" points="416.549,153.256 416.549,189.115 460.343,189.115 
		460.343,153.256 	"/>
	<polygon fill="none" stroke="#000000" stroke-width="0.1417" points="470.549,153.256 470.549,189.115 514.343,189.115 
		514.343,153.256 	"/>
	<polygon fill="none" stroke="#000000" stroke-width="0.1417" points="524.548,153.256 524.548,189.115 568.343,189.115 
		568.343,153.256 	"/>
	<polygon fill="none" stroke="#000000" stroke-width="0.1417" points="578.548,153.256 578.548,189.115 622.343,189.115 
		622.343,153.256 	"/>
	<polygon fill="none" stroke="#000000" stroke-width="0.1417" points="632.548,153.256 632.548,189.115 676.343,189.115 
		676.343,153.256 	"/>
	<polygon fill="none" stroke="#000000" stroke-width="0.1417" points="686.548,153.256 686.548,189.115 730.343,189.115 
		730.343,153.256 	"/>
	<polygon fill="none" stroke="#000000" stroke-width="0.1417" points="740.548,153.256 740.548,189.115 784.343,189.115 
		784.343,153.256 	"/>
	<polygon fill="none" stroke="#000000" stroke-width="0.1417" points="848.548,153.256 848.548,189.115 892.343,189.115 
		892.343,153.256 	"/>
	<polygon fill="none" stroke="#000000" stroke-width="0.1417" points="826.437,180.577 826.437,187.709 840.769,187.709 
		840.769,180.577 	"/>
	<polygon fill="none" stroke="#000000" stroke-width="0.1417" points="798.519,122.288 798.519,166.083 834.375,166.083 
		834.375,122.288 	"/>
	<polygon fill="none" stroke="#000000" stroke-width="0.1417" points="43.289,128.376 43.289,142.711 50.42,142.711 50.42,128.376 	
		"/>
	<polygon fill="none" stroke="#000000" stroke-width="0.1417" points="110.969,128.376 110.969,142.711 118.101,142.711 
		118.101,128.376 	"/>
	<polygon fill="none" stroke="#000000" stroke-width="0.1417" points="58.796,99.256 58.796,135.115 102.592,135.115 
		102.592,99.256 	"/>
	<polygon fill="none" stroke="#000000" stroke-width="0.1417" points="133.047,99.256 133.047,135.115 176.843,135.115 
		176.843,99.256 	"/>
	<polygon fill="none" stroke="#000000" stroke-width="0.1417" points="187.047,99.256 187.047,135.115 230.843,135.115 
		230.843,99.256 	"/>
	<polygon fill="none" stroke="#000000" stroke-width="0.1417" points="241.047,99.256 241.047,135.115 284.843,135.115 
		284.843,99.256 	"/>
	<polygon fill="none" stroke="#000000" stroke-width="0.1417" points="295.047,99.256 295.047,135.115 338.843,135.115 
		338.843,99.256 	"/>
	<polygon fill="none" stroke="#000000" stroke-width="0.1417" points="349.046,99.256 349.046,135.115 392.843,135.115 
		392.843,99.256 	"/>
	<polygon fill="none" stroke="#000000" stroke-width="0.1417" points="403.046,99.256 403.046,135.115 446.842,135.115 
		446.842,99.256 	"/>
	<polygon fill="none" stroke="#000000" stroke-width="0.1417" points="457.046,99.256 457.046,135.115 500.841,135.115 
		500.841,99.256 	"/>
	<polygon fill="none" stroke="#000000" stroke-width="0.1417" points="511.046,99.256 511.046,135.115 554.841,135.115 
		554.841,99.256 	"/>
	<polygon fill="none" stroke="#000000" stroke-width="0.1417" points="565.046,99.256 565.046,135.115 608.841,135.115 
		608.841,99.256 	"/>
	<polygon fill="none" stroke="#000000" stroke-width="0.1417" points="619.046,99.256 619.046,135.115 662.841,135.115 
		662.841,99.256 	"/>
	<polygon fill="none" stroke="#000000" stroke-width="0.1417" points="673.046,99.256 673.046,135.115 716.841,135.115 
		716.841,99.256 	"/>
	<polygon fill="none" stroke="#000000" stroke-width="0.1417" points="727.046,99.256 727.046,135.115 770.841,135.115 
		770.841,99.256 	"/>
	<polygon fill="none" stroke="#000000" stroke-width="0.1417" points="848.548,99.256 848.548,135.115 892.343,135.115 
		892.343,99.256 	"/>
	<polygon fill="none" stroke="#000000" stroke-width="0.1417" points="827.208,102.354 827.208,109.486 841.542,109.486 
		841.542,102.354 	"/>
	<polygon fill="none" stroke="#000000" stroke-width="0.1417" points="758.787,74.376 758.787,88.711 765.921,88.711 
		765.921,74.376 	"/>
	<polygon fill="none" stroke="#000000" stroke-width="0.1417" points="826.468,74.376 826.468,88.711 833.603,88.711 
		833.603,74.376 	"/>
	<polygon fill="none" stroke="#000000" stroke-width="0.1417" points="45.298,45.256 45.298,81.115 89.094,81.115 89.094,45.256 	
		"/>
	<polygon fill="none" stroke="#000000" stroke-width="0.1417" points="106.047,45.256 106.047,81.115 149.843,81.115 
		149.843,45.256 	"/>
	<polygon fill="none" stroke="#000000" stroke-width="0.1417" points="160.047,45.256 160.047,81.115 203.843,81.115 
		203.843,45.256 	"/>
	<polygon fill="none" stroke="#000000" stroke-width="0.1417" points="214.047,45.256 214.047,81.115 257.843,81.115 
		257.843,45.256 	"/>
	<polygon fill="none" stroke="#000000" stroke-width="0.1417" points="268.047,45.256 268.047,81.115 311.843,81.115 
		311.843,45.256 	"/>
	<polygon fill="none" stroke="#000000" stroke-width="0.1417" points="322.047,45.256 322.047,81.115 365.843,81.115 
		365.843,45.256 	"/>
	<polygon fill="none" stroke="#000000" stroke-width="0.1417" points="376.046,45.256 376.046,81.115 419.843,81.115 
		419.843,45.256 	"/>
	<polygon fill="none" stroke="#000000" stroke-width="0.1417" points="430.046,45.256 430.046,81.115 473.842,81.115 
		473.842,45.256 	"/>
	<polygon fill="none" stroke="#000000" stroke-width="0.1417" points="484.047,45.256 484.047,81.115 527.841,81.115 
		527.841,45.256 	"/>
	<polygon fill="none" stroke="#000000" stroke-width="0.1417" points="538.046,45.256 538.046,81.115 581.841,81.115 
		581.841,45.256 	"/>
	<polygon fill="none" stroke="#000000" stroke-width="0.1417" points="592.046,45.256 592.046,81.115 635.841,81.115 
		635.841,45.256 	"/>
	<polygon fill="none" stroke="#000000" stroke-width="0.1417" points="646.046,45.256 646.046,81.115 689.841,81.115 
		689.841,45.256 	"/>
	<polygon fill="none" stroke="#000000" stroke-width="0.1417" points="700.046,45.256 700.046,81.115 743.841,81.115 
		743.841,45.256 	"/>
	<polygon fill="none" stroke="#000000" stroke-width="0.1417" points="774.296,45.256 774.296,81.115 818.093,81.115 
		818.093,45.256 	"/>
	<polygon fill="none" stroke="#000000" stroke-width="0.1417" points="848.548,45.256 848.548,81.115 892.343,81.115 
		892.343,45.256 	"/>
	<rect x="310.766" y="276.201" fill="none" stroke="#000000" stroke-width="0.1417" width="5.669" height="5.672"/>
	<rect x="343.364" y="276.35" fill="none" stroke="#000000" stroke-width="0.1417" width="5.669" height="5.67"/>
	<circle fill="none" stroke="#000000" stroke-width="0.1417" cx="329.899" cy="277.937" r="9.399"/>
	<g id="default_plate" display="none">
		<polygon display="inline" fill="none" stroke="#000000" stroke-width="0.1417" points="903.199,314.186 34.233,314.186 
			34.233,35.972 903.199,35.972 		"/>
	</g>
</g>
<g id="AEK0116" display="none">
	<polygon display="inline" fill="none" stroke="#000000" stroke-width="0.1417" points="17.237,248.351 17.237,284.636 
		61.457,284.636 61.457,248.351 	"/>
	<polygon display="inline" fill="none" stroke="#000000" stroke-width="0.1417" points="84.735,248.351 84.735,284.636 
		128.956,284.636 128.956,248.351 	"/>
	<polygon display="inline" fill="none" stroke="#000000" stroke-width="0.1417" points="158.986,248.351 158.986,284.636 
		203.207,284.636 203.207,248.351 	"/>
	<polygon display="inline" fill="none" stroke="#000000" stroke-width="0.1417" points="233.237,248.351 233.237,284.636 
		277.455,284.636 277.455,248.351 	"/>
	<polygon display="inline" fill="none" stroke="#000000" stroke-width="0.1417" points="401.986,248.351 401.986,284.636 
		446.207,284.636 446.207,248.351 	"/>
	<polygon display="inline" fill="none" stroke="#000000" stroke-width="0.1417" points="570.736,248.351 570.736,284.636 
		614.957,284.636 614.957,248.351 	"/>
	<polygon display="inline" fill="none" stroke="#000000" stroke-width="0.1417" points="651.736,248.351 651.736,284.636 
		695.957,284.636 695.957,248.351 	"/>
	<polygon display="inline" fill="none" stroke="#000000" stroke-width="0.1417" points="719.236,248.351 719.236,284.636 
		763.457,284.636 763.457,248.351 	"/>
	<polygon display="inline" fill="none" stroke="#000000" stroke-width="0.1417" points="773.236,248.351 773.236,284.636 
		817.457,284.636 817.457,248.351 	"/>
	<polygon display="inline" fill="none" stroke="#000000" stroke-width="0.1417" points="827.236,248.351 827.236,284.636 
		871.457,284.636 871.457,248.351 	"/>
	<polygon display="inline" fill="none" stroke="#000000" stroke-width="0.1417" points="28.219,194.563 28.219,230.423 
		72.014,230.423 72.014,194.563 	"/>
	<polygon display="inline" fill="none" stroke="#000000" stroke-width="0.1417" points="95.717,194.563 95.717,230.423 
		139.516,230.423 139.516,194.563 	"/>
	<polygon display="inline" fill="none" stroke="#000000" stroke-width="0.1417" points="149.717,194.563 149.717,230.423 
		193.513,230.423 193.513,194.563 	"/>
	<polygon display="inline" fill="none" stroke="#000000" stroke-width="0.1417" points="203.72,194.563 203.72,230.423 
		247.513,230.423 247.513,194.563 	"/>
	<polygon display="inline" fill="none" stroke="#000000" stroke-width="0.1417" points="257.72,194.563 257.72,230.423 
		301.512,230.423 301.512,194.563 	"/>
	<polygon display="inline" fill="none" stroke="#000000" stroke-width="0.1417" points="311.717,194.563 311.717,230.423 
		355.512,230.423 355.512,194.563 	"/>
	<polygon display="inline" fill="none" stroke="#000000" stroke-width="0.1417" points="365.717,194.563 365.717,230.423 
		409.512,230.423 409.512,194.563 	"/>
	<polygon display="inline" fill="none" stroke="#000000" stroke-width="0.1417" points="419.72,194.563 419.72,230.423 
		463.516,230.423 463.516,194.563 	"/>
	<polygon display="inline" fill="none" stroke="#000000" stroke-width="0.1417" points="473.72,194.563 473.72,230.423 
		517.515,230.423 517.515,194.563 	"/>
	<polygon display="inline" fill="none" stroke="#000000" stroke-width="0.1417" points="527.72,194.563 527.72,230.423 
		571.515,230.423 571.515,194.563 	"/>
	<polygon display="inline" fill="none" stroke="#000000" stroke-width="0.1417" points="581.72,194.563 581.72,230.423 
		625.515,230.423 625.515,194.563 	"/>
	<polygon display="inline" fill="none" stroke="#000000" stroke-width="0.1417" points="635.72,194.563 635.72,230.423 
		679.515,230.423 679.515,194.563 	"/>
	<polygon display="inline" fill="none" stroke="#000000" stroke-width="0.1417" points="703.218,194.563 703.218,230.423 
		747.013,230.423 747.013,194.563 	"/>
	<polygon display="inline" fill="none" stroke="#000000" stroke-width="0.1417" points="770.72,194.563 770.72,230.423 
		814.515,230.423 814.515,194.563 	"/>
	<polygon display="inline" fill="none" stroke="#000000" stroke-width="0.1417" points="824.72,194.563 824.72,230.423 
		868.515,230.423 868.515,194.563 	"/>
	<polygon display="inline" fill="none" stroke="#000000" stroke-width="0.1417" points="20.092,169.684 20.092,184.019 
		27.227,184.019 27.227,169.684 	"/>
	<polygon display="inline" fill="none" stroke="#000000" stroke-width="0.1417" points="100.009,169.684 100.009,184.019 
		107.141,184.019 107.141,169.684 	"/>
	<polygon display="inline" fill="none" stroke="#000000" stroke-width="0.1417" points="41.72,140.564 41.72,176.423 
		85.516,176.423 85.516,140.564 	"/>
	<polygon display="inline" fill="none" stroke="#000000" stroke-width="0.1417" points="122.72,140.564 122.72,176.423 
		166.515,176.423 166.515,140.564 	"/>
	<polygon display="inline" fill="none" stroke="#000000" stroke-width="0.1417" points="176.72,140.564 176.72,176.423 
		220.515,176.423 220.515,140.564 	"/>
	<polygon display="inline" fill="none" stroke="#000000" stroke-width="0.1417" points="230.72,140.564 230.72,176.423 
		274.513,176.423 274.513,140.564 	"/>
	<polygon display="inline" fill="none" stroke="#000000" stroke-width="0.1417" points="284.72,140.564 284.72,176.423 
		328.512,176.423 328.512,140.564 	"/>
	<polygon display="inline" fill="none" stroke="#000000" stroke-width="0.1417" points="338.72,140.564 338.72,176.423 
		382.515,176.423 382.515,140.564 	"/>
	<polygon display="inline" fill="none" stroke="#000000" stroke-width="0.1417" points="392.72,140.564 392.72,176.423 
		436.515,176.423 436.515,140.564 	"/>
	<polygon display="inline" fill="none" stroke="#000000" stroke-width="0.1417" points="446.721,140.564 446.721,176.423 
		490.515,176.423 490.515,140.564 	"/>
	<polygon display="inline" fill="none" stroke="#000000" stroke-width="0.1417" points="500.72,140.564 500.72,176.423 
		544.515,176.423 544.515,140.564 	"/>
	<polygon display="inline" fill="none" stroke="#000000" stroke-width="0.1417" points="554.72,140.564 554.72,176.423 
		598.515,176.423 598.515,140.564 	"/>
	<polygon display="inline" fill="none" stroke="#000000" stroke-width="0.1417" points="608.72,140.564 608.72,176.423 
		652.515,176.423 652.515,140.564 	"/>
	<polygon display="inline" fill="none" stroke="#000000" stroke-width="0.1417" points="662.72,140.564 662.72,176.423 
		706.515,176.423 706.515,140.564 	"/>
	<polygon display="inline" fill="none" stroke="#000000" stroke-width="0.1417" points="716.72,140.564 716.72,176.423 
		760.515,176.423 760.515,140.564 	"/>
	<polygon display="inline" fill="none" stroke="#000000" stroke-width="0.1417" points="824.72,140.564 824.72,176.423 
		868.515,176.423 868.515,140.564 	"/>
	<polygon display="inline" fill="none" stroke="#000000" stroke-width="0.1417" points="802.609,167.885 802.609,175.017 
		816.941,175.017 816.941,167.885 	"/>
	<polygon display="inline" fill="none" stroke="#000000" stroke-width="0.1417" points="774.691,109.595 774.691,153.39 
		810.546,153.39 810.546,109.595 	"/>
	<polygon display="inline" fill="none" stroke="#000000" stroke-width="0.1417" points="19.46,115.684 19.46,130.019 
		26.592,130.019 26.592,115.684 	"/>
	<polygon display="inline" fill="none" stroke="#000000" stroke-width="0.1417" points="87.14,115.684 87.14,130.019 
		94.272,130.019 94.272,115.684 	"/>
	<polygon display="inline" fill="none" stroke="#000000" stroke-width="0.1417" points="34.968,86.564 34.968,122.423 
		78.763,122.423 78.763,86.564 	"/>
	<polygon display="inline" fill="none" stroke="#000000" stroke-width="0.1417" points="109.219,86.564 109.219,122.423 
		153.014,122.423 153.014,86.564 	"/>
	<polygon display="inline" fill="none" stroke="#000000" stroke-width="0.1417" points="163.219,86.564 163.219,122.423 
		207.014,122.423 207.014,86.564 	"/>
	<polygon display="inline" fill="none" stroke="#000000" stroke-width="0.1417" points="217.219,86.564 217.219,122.423 
		261.014,122.423 261.014,86.564 	"/>
	<polygon display="inline" fill="none" stroke="#000000" stroke-width="0.1417" points="271.219,86.564 271.219,122.423 
		315.014,122.423 315.014,86.564 	"/>
	<polygon display="inline" fill="none" stroke="#000000" stroke-width="0.1417" points="325.218,86.564 325.218,122.423 
		369.014,122.423 369.014,86.564 	"/>
	<polygon display="inline" fill="none" stroke="#000000" stroke-width="0.1417" points="379.218,86.564 379.218,122.423 
		423.014,122.423 423.014,86.564 	"/>
	<polygon display="inline" fill="none" stroke="#000000" stroke-width="0.1417" points="433.218,86.564 433.218,122.423 
		477.013,122.423 477.013,86.564 	"/>
	<polygon display="inline" fill="none" stroke="#000000" stroke-width="0.1417" points="487.218,86.564 487.218,122.423 
		531.013,122.423 531.013,86.564 	"/>
	<polygon display="inline" fill="none" stroke="#000000" stroke-width="0.1417" points="541.218,86.564 541.218,122.423 
		585.013,122.423 585.013,86.564 	"/>
	<polygon display="inline" fill="none" stroke="#000000" stroke-width="0.1417" points="595.218,86.564 595.218,122.423 
		639.013,122.423 639.013,86.564 	"/>
	<polygon display="inline" fill="none" stroke="#000000" stroke-width="0.1417" points="649.218,86.564 649.218,122.423 
		693.013,122.423 693.013,86.564 	"/>
	<polygon display="inline" fill="none" stroke="#000000" stroke-width="0.1417" points="703.218,86.564 703.218,122.423 
		747.013,122.423 747.013,86.564 	"/>
	<polygon display="inline" fill="none" stroke="#000000" stroke-width="0.1417" points="824.72,86.564 824.72,122.423 
		868.515,122.423 868.515,86.564 	"/>
	<polygon display="inline" fill="none" stroke="#000000" stroke-width="0.1417" points="803.38,89.662 803.38,96.794 
		817.714,96.794 817.714,89.662 	"/>
	<polygon display="inline" fill="none" stroke="#000000" stroke-width="0.1417" points="734.958,61.684 734.958,76.019 
		742.093,76.019 742.093,61.684 	"/>
	<polygon display="inline" fill="none" stroke="#000000" stroke-width="0.1417" points="802.64,61.684 802.64,76.019 
		809.775,76.019 809.775,61.684 	"/>
	<polygon display="inline" fill="none" stroke="#000000" stroke-width="0.1417" points="21.469,32.564 21.469,68.423 65.265,68.423 
		65.265,32.564 	"/>
	<polygon display="inline" fill="none" stroke="#000000" stroke-width="0.1417" points="82.219,32.564 82.219,68.423 
		126.014,68.423 126.014,32.564 	"/>
	<polygon display="inline" fill="none" stroke="#000000" stroke-width="0.1417" points="136.219,32.564 136.219,68.423 
		180.014,68.423 180.014,32.564 	"/>
	<polygon display="inline" fill="none" stroke="#000000" stroke-width="0.1417" points="190.219,32.564 190.219,68.423 
		234.014,68.423 234.014,32.564 	"/>
	<polygon display="inline" fill="none" stroke="#000000" stroke-width="0.1417" points="244.219,32.564 244.219,68.423 
		288.014,68.423 288.014,32.564 	"/>
	<polygon display="inline" fill="none" stroke="#000000" stroke-width="0.1417" points="298.219,32.564 298.219,68.423 
		342.014,68.423 342.014,32.564 	"/>
	<polygon display="inline" fill="none" stroke="#000000" stroke-width="0.1417" points="352.218,32.564 352.218,68.423 
		396.014,68.423 396.014,32.564 	"/>
	<polygon display="inline" fill="none" stroke="#000000" stroke-width="0.1417" points="406.218,32.564 406.218,68.423 
		450.014,68.423 450.014,32.564 	"/>
	<polygon display="inline" fill="none" stroke="#000000" stroke-width="0.1417" points="460.219,32.564 460.219,68.423 
		504.013,68.423 504.013,32.564 	"/>
	<polygon display="inline" fill="none" stroke="#000000" stroke-width="0.1417" points="514.218,32.564 514.218,68.423 
		558.013,68.423 558.013,32.564 	"/>
	<polygon display="inline" fill="none" stroke="#000000" stroke-width="0.1417" points="568.218,32.564 568.218,68.423 
		612.013,68.423 612.013,32.564 	"/>
	<polygon display="inline" fill="none" stroke="#000000" stroke-width="0.1417" points="622.218,32.564 622.218,68.423 
		666.013,68.423 666.013,32.564 	"/>
	<polygon display="inline" fill="none" stroke="#000000" stroke-width="0.1417" points="676.218,32.564 676.218,68.423 
		720.013,68.423 720.013,32.564 	"/>
	<polygon display="inline" fill="none" stroke="#000000" stroke-width="0.1417" points="750.468,32.564 750.468,68.423 
		794.265,68.423 794.265,32.564 	"/>
	<polygon display="inline" fill="none" stroke="#000000" stroke-width="0.1417" points="824.72,32.564 824.72,68.423 
		868.515,68.423 868.515,32.564 	"/>
	<g id="default_plate_copy" display="inline">
		<polygon fill="none" stroke="#000000" stroke-width="0.1417" points="879.371,301.493 10.405,301.493 10.405,23.28 879.371,23.28 
					"/>
	</g>
</g>
</svg>
