<?xml version="1.0" encoding="utf-8"?>
<!-- Generator: Adobe Illustrator 16.0.4, SVG Export Plug-In . SVG Version: 6.00 Build 0)  -->
<!DOCTYPE svg PUBLIC "-//W3C//DTD SVG 1.1//EN" "http://www.w3.org/Graphics/SVG/1.1/DTD/svg11.dtd">
<svg version="1.1" xmlns="http://www.w3.org/2000/svg" xmlns:xlink="http://www.w3.org/1999/xlink" x="0px" y="0px"
	 width="935.433px" height="340.158px" viewBox="-23.829 -7.692 935.433 340.158"
	 enable-background="new -23.829 -7.692 935.433 340.158" xml:space="preserve">
<g id="_x32_2mini">
	<g>
		<path fill="none" stroke="#000000" stroke-width="0.147" d="M-3.419,298.364c0,7.827,6.346,14.173,14.173,14.173h866.267
			c7.827,0,14.173-6.346,14.173-14.173V26.409c0-7.828-6.346-14.173-14.173-14.173H10.754c-7.828,0-14.173,6.346-14.173,14.173
			V298.364z"/>
	</g>
	<g id="screw_holes">
		<path display="none" fill="none" stroke="#000000" stroke-width="0.1417" d="M544.266,297.927l2.252-5.053 M546.518,292.875
			l5.053-2.307 M551.571,290.568l5.107,2.307 M556.678,292.875l2.252,5.053 M558.93,297.927l-2.252,5.053 M556.678,302.98
			l-5.107,2.252 M551.571,305.232l-5.053-2.252 M546.518,302.98l-2.252-5.053"/>
		<path display="none" fill="none" stroke="#000000" stroke-width="0.1417" d="M213.624,297.927l2.252-5.053 M215.875,292.875
			l5.656-2.307 M221.532,290.568l5.053,2.307 M226.584,292.875l2.252,5.053 M228.836,297.927l-2.252,5.053 M226.584,302.98
			l-5.053,2.252 M221.532,305.232l-5.656-2.252 M215.875,302.98l-2.252-5.053"/>
		<g>
			<circle fill="none" stroke="#000000" stroke-width="0.1417" cx="11.189" cy="26.584" r="7.304"/>
		</g>
		<g>
			<circle fill="none" stroke="#000000" stroke-width="0.1417" cx="120.287" cy="26.584" r="7.303"/>
		</g>
		<g>
			<circle fill="none" stroke="#000000" stroke-width="0.1417" cx="335.929" cy="26.584" r="7.304"/>
		</g>
		<g>
			<circle fill="none" stroke="#000000" stroke-width="0.1417" cx="551.873" cy="26.584" r="7.304"/>
		</g>
		<g>
			<circle fill="none" stroke="#000000" stroke-width="0.1417" cx="713.832" cy="26.584" r="7.304"/>
		</g>
		<g>
			<circle fill="none" stroke="#000000" stroke-width="0.1417" cx="876.585" cy="26.584" r="7.304"/>
		</g>
		<g>
			<circle fill="none" stroke="#000000" stroke-width="0.1417" cx="876.585" cy="297.9" r="7.304"/>
		</g>
		<g>
			<circle fill="none" stroke="#000000" stroke-width="0.1417" cx="11.189" cy="297.9" r="7.304"/>
		</g>
	</g>
</g>
<g id="AEK_II">
	<polygon fill="none" stroke="#000000" stroke-width="0.1417" points="282.642,282.682 282.642,297.016 289.772,297.016 
		289.772,282.682 	"/>
	<polygon fill="none" stroke="#000000" stroke-width="0.1417" points="539.461,282.682 539.461,297.016 546.59,297.016 
		546.59,282.682 	"/>
	<polygon fill="none" stroke="#000000" stroke-width="0.1417" points="28.219,253.564 28.219,289.423 72.014,289.423 
		72.014,253.564 	"/>
	<polygon fill="none" stroke="#000000" stroke-width="0.1417" points="102.469,253.564 102.469,289.423 146.265,289.423 
		146.265,253.564 	"/>
	<polygon fill="none" stroke="#000000" stroke-width="0.1417" points="176.72,253.564 176.72,289.423 220.515,289.423 
		220.515,253.564 	"/>
	<polygon fill="none" stroke="#000000" stroke-width="0.1417" points="392.72,253.564 392.72,289.423 436.512,289.423 
		436.512,253.564 	"/>
	<polygon fill="none" stroke="#000000" stroke-width="0.1417" points="595.219,253.564 595.219,289.423 639.014,289.423 
		639.014,253.564 	"/>
	<polygon fill="none" stroke="#000000" stroke-width="0.1417" points="655.969,253.564 655.969,289.423 699.764,289.423 
		699.764,253.564 	"/>
	<polygon fill="none" stroke="#000000" stroke-width="0.1417" points="716.721,253.564 716.721,289.423 760.516,289.423 
		760.516,253.564 	"/>
	<polygon fill="none" stroke="#000000" stroke-width="0.1417" points="770.721,253.564 770.721,289.423 814.516,289.423 
		814.516,253.564 	"/>
	<polygon fill="none" stroke="#000000" stroke-width="0.1417" points="824.721,253.564 824.721,289.423 868.516,289.423 
		868.516,253.564 	"/>
	<polygon fill="none" stroke="#000000" stroke-width="0.1417" points="28.219,199.564 28.219,235.423 72.014,235.423 
		72.014,199.564 	"/>
	<polygon fill="none" stroke="#000000" stroke-width="0.1417" points="95.717,199.564 95.717,235.423 139.516,235.423 
		139.516,199.564 	"/>
	<polygon fill="none" stroke="#000000" stroke-width="0.1417" points="149.717,199.564 149.717,235.423 193.513,235.423 
		193.513,199.564 	"/>
	<polygon fill="none" stroke="#000000" stroke-width="0.1417" points="203.72,199.564 203.72,235.423 247.513,235.423 
		247.513,199.564 	"/>
	<polygon fill="none" stroke="#000000" stroke-width="0.1417" points="257.72,199.564 257.72,235.423 301.512,235.423 
		301.512,199.564 	"/>
	<polygon fill="none" stroke="#000000" stroke-width="0.1417" points="311.717,199.564 311.717,235.423 355.512,235.423 
		355.512,199.564 	"/>
	<polygon fill="none" stroke="#000000" stroke-width="0.1417" points="365.717,199.564 365.717,235.423 409.512,235.423 
		409.512,199.564 	"/>
	<polygon fill="none" stroke="#000000" stroke-width="0.1417" points="419.72,199.564 419.72,235.423 463.516,235.423 
		463.516,199.564 	"/>
	<polygon fill="none" stroke="#000000" stroke-width="0.1417" points="473.721,199.564 473.721,235.423 517.516,235.423 
		517.516,199.564 	"/>
	<polygon fill="none" stroke="#000000" stroke-width="0.1417" points="527.721,199.564 527.721,235.423 571.516,235.423 
		571.516,199.564 	"/>
	<polygon fill="none" stroke="#000000" stroke-width="0.1417" points="581.721,199.564 581.721,235.423 625.516,235.423 
		625.516,199.564 	"/>
	<polygon fill="none" stroke="#000000" stroke-width="0.1417" points="635.721,199.564 635.721,235.423 679.516,235.423 
		679.516,199.564 	"/>
	<polygon fill="none" stroke="#000000" stroke-width="0.1417" points="703.219,199.564 703.219,235.423 747.014,235.423 
		747.014,199.564 	"/>
	<polygon fill="none" stroke="#000000" stroke-width="0.1417" points="770.721,199.564 770.721,235.423 814.516,235.423 
		814.516,199.564 	"/>
	<polygon fill="none" stroke="#000000" stroke-width="0.1417" points="824.721,199.564 824.721,235.423 868.516,235.423 
		868.516,199.564 	"/>
	<polygon fill="none" stroke="#000000" stroke-width="0.1417" points="20.092,174.684 20.092,189.019 27.227,189.019 
		27.227,174.684 	"/>
	<polygon fill="none" stroke="#000000" stroke-width="0.1417" points="100.009,174.684 100.009,189.019 107.141,189.019 
		107.141,174.684 	"/>
	<polygon fill="none" stroke="#000000" stroke-width="0.1417" points="41.72,145.564 41.72,181.423 85.516,181.423 85.516,145.564 	
		"/>
	<polygon fill="none" stroke="#000000" stroke-width="0.1417" points="122.72,145.564 122.72,181.423 166.515,181.423 
		166.515,145.564 	"/>
	<polygon fill="none" stroke="#000000" stroke-width="0.1417" points="176.72,145.564 176.72,181.423 220.515,181.423 
		220.515,145.564 	"/>
	<polygon fill="none" stroke="#000000" stroke-width="0.1417" points="230.72,145.564 230.72,181.423 274.513,181.423 
		274.513,145.564 	"/>
	<polygon fill="none" stroke="#000000" stroke-width="0.1417" points="284.72,145.564 284.72,181.423 328.512,181.423 
		328.512,145.564 	"/>
	<polygon fill="none" stroke="#000000" stroke-width="0.1417" points="338.72,145.564 338.72,181.423 382.515,181.423 
		382.515,145.564 	"/>
	<polygon fill="none" stroke="#000000" stroke-width="0.1417" points="392.72,145.564 392.72,181.423 436.515,181.423 
		436.515,145.564 	"/>
	<polygon fill="none" stroke="#000000" stroke-width="0.1417" points="446.721,145.564 446.721,181.423 490.516,181.423 
		490.516,145.564 	"/>
	<polygon fill="none" stroke="#000000" stroke-width="0.1417" points="500.721,145.564 500.721,181.423 544.516,181.423 
		544.516,145.564 	"/>
	<polygon fill="none" stroke="#000000" stroke-width="0.1417" points="554.721,145.564 554.721,181.423 598.516,181.423 
		598.516,145.564 	"/>
	<polygon fill="none" stroke="#000000" stroke-width="0.1417" points="608.721,145.564 608.721,181.423 652.516,181.423 
		652.516,145.564 	"/>
	<polygon fill="none" stroke="#000000" stroke-width="0.1417" points="662.721,145.564 662.721,181.423 706.516,181.423 
		706.516,145.564 	"/>
	<polygon fill="none" stroke="#000000" stroke-width="0.1417" points="716.721,145.564 716.721,181.423 760.516,181.423 
		760.516,145.564 	"/>
	<polygon fill="none" stroke="#000000" stroke-width="0.1417" points="824.721,145.564 824.721,181.423 868.516,181.423 
		868.516,145.564 	"/>
	<polygon fill="none" stroke="#000000" stroke-width="0.1417" points="802.608,172.885 802.608,180.016 816.94,180.016 
		816.94,172.885 	"/>
	<polygon fill="none" stroke="#000000" stroke-width="0.1417" points="774.69,114.595 774.69,158.39 810.547,158.39 
		810.547,114.595 	"/>
	<polygon fill="none" stroke="#000000" stroke-width="0.1417" points="19.46,120.684 19.46,135.019 26.592,135.019 26.592,120.684 	
		"/>
	<polygon fill="none" stroke="#000000" stroke-width="0.1417" points="87.14,120.684 87.14,135.019 94.272,135.019 94.272,120.684 	
		"/>
	<polygon fill="none" stroke="#000000" stroke-width="0.1417" points="34.968,91.564 34.968,127.423 78.763,127.423 78.763,91.564 	
		"/>
	<polygon fill="none" stroke="#000000" stroke-width="0.1417" points="109.219,91.564 109.219,127.423 153.014,127.423 
		153.014,91.564 	"/>
	<polygon fill="none" stroke="#000000" stroke-width="0.1417" points="163.219,91.564 163.219,127.423 207.014,127.423 
		207.014,91.564 	"/>
	<polygon fill="none" stroke="#000000" stroke-width="0.1417" points="217.219,91.564 217.219,127.423 261.014,127.423 
		261.014,91.564 	"/>
	<polygon fill="none" stroke="#000000" stroke-width="0.1417" points="271.219,91.564 271.219,127.423 315.014,127.423 
		315.014,91.564 	"/>
	<polygon fill="none" stroke="#000000" stroke-width="0.1417" points="325.218,91.564 325.218,127.423 369.014,127.423 
		369.014,91.564 	"/>
	<polygon fill="none" stroke="#000000" stroke-width="0.1417" points="379.218,91.564 379.218,127.423 423.014,127.423 
		423.014,91.564 	"/>
	<polygon fill="none" stroke="#000000" stroke-width="0.1417" points="433.218,91.564 433.218,127.423 477.014,127.423 
		477.014,91.564 	"/>
	<polygon fill="none" stroke="#000000" stroke-width="0.1417" points="487.219,91.564 487.219,127.423 531.014,127.423 
		531.014,91.564 	"/>
	<polygon fill="none" stroke="#000000" stroke-width="0.1417" points="541.219,91.564 541.219,127.423 585.014,127.423 
		585.014,91.564 	"/>
	<polygon fill="none" stroke="#000000" stroke-width="0.1417" points="595.219,91.564 595.219,127.423 639.014,127.423 
		639.014,91.564 	"/>
	<polygon fill="none" stroke="#000000" stroke-width="0.1417" points="649.219,91.564 649.219,127.423 693.014,127.423 
		693.014,91.564 	"/>
	<polygon fill="none" stroke="#000000" stroke-width="0.1417" points="703.219,91.564 703.219,127.423 747.014,127.423 
		747.014,91.564 	"/>
	<polygon fill="none" stroke="#000000" stroke-width="0.1417" points="824.721,91.564 824.721,127.423 868.516,127.423 
		868.516,91.564 	"/>
	<polygon fill="none" stroke="#000000" stroke-width="0.1417" points="803.381,94.662 803.381,101.794 817.715,101.794 
		817.715,94.662 	"/>
	<polygon fill="none" stroke="#000000" stroke-width="0.1417" points="734.959,66.684 734.959,81.019 742.094,81.019 
		742.094,66.684 	"/>
	<polygon fill="none" stroke="#000000" stroke-width="0.1417" points="802.641,66.684 802.641,81.019 809.774,81.019 
		809.774,66.684 	"/>
	<polygon fill="none" stroke="#000000" stroke-width="0.1417" points="21.469,37.564 21.469,73.423 65.265,73.423 65.265,37.564 	
		"/>
	<polygon fill="none" stroke="#000000" stroke-width="0.1417" points="82.219,37.564 82.219,73.423 126.014,73.423 126.014,37.564 	
		"/>
	<polygon fill="none" stroke="#000000" stroke-width="0.1417" points="136.219,37.564 136.219,73.423 180.014,73.423 
		180.014,37.564 	"/>
	<polygon fill="none" stroke="#000000" stroke-width="0.1417" points="190.219,37.564 190.219,73.423 234.014,73.423 
		234.014,37.564 	"/>
	<polygon fill="none" stroke="#000000" stroke-width="0.1417" points="244.219,37.564 244.219,73.423 288.014,73.423 
		288.014,37.564 	"/>
	<polygon fill="none" stroke="#000000" stroke-width="0.1417" points="298.219,37.564 298.219,73.423 342.014,73.423 
		342.014,37.564 	"/>
	<polygon fill="none" stroke="#000000" stroke-width="0.1417" points="352.218,37.564 352.218,73.423 396.014,73.423 
		396.014,37.564 	"/>
	<polygon fill="none" stroke="#000000" stroke-width="0.1417" points="406.218,37.564 406.218,73.423 450.014,73.423 
		450.014,37.564 	"/>
	<polygon fill="none" stroke="#000000" stroke-width="0.1417" points="460.219,37.564 460.219,73.423 504.014,73.423 
		504.014,37.564 	"/>
	<polygon fill="none" stroke="#000000" stroke-width="0.1417" points="514.219,37.564 514.219,73.423 558.014,73.423 
		558.014,37.564 	"/>
	<polygon fill="none" stroke="#000000" stroke-width="0.1417" points="568.219,37.564 568.219,73.423 612.014,73.423 
		612.014,37.564 	"/>
	<polygon fill="none" stroke="#000000" stroke-width="0.1417" points="622.219,37.564 622.219,73.423 666.014,73.423 
		666.014,37.564 	"/>
	<polygon fill="none" stroke="#000000" stroke-width="0.1417" points="676.219,37.564 676.219,73.423 720.014,73.423 
		720.014,37.564 	"/>
	<polygon fill="none" stroke="#000000" stroke-width="0.1417" points="750.469,37.564 750.469,73.423 794.266,73.423 
		794.266,37.564 	"/>
	<polygon fill="none" stroke="#000000" stroke-width="0.1417" points="824.721,37.564 824.721,73.423 868.516,73.423 
		868.516,37.564 	"/>
	<rect x="286.937" y="268.509" fill="none" stroke="#000000" stroke-width="0.1417" width="5.669" height="5.671"/>
	<rect x="319.535" y="268.657" fill="none" stroke="#000000" stroke-width="0.1417" width="5.669" height="5.67"/>
	<circle fill="none" stroke="#000000" stroke-width="0.1417" cx="306.071" cy="270.244" r="9.399"/>
	<g id="default_plate" display="none">
		<polygon display="inline" fill="none" stroke="#000000" stroke-width="0.1417" points="879.37,306.493 10.405,306.493 
			10.405,28.28 879.37,28.28 		"/>
	</g>
</g>
<g id="AEK0116" display="none">
	<polygon display="inline" fill="none" stroke="#000000" stroke-width="0.1417" points="17.237,248.35 17.237,284.636 
		61.457,284.636 61.457,248.35 	"/>
	<polygon display="inline" fill="none" stroke="#000000" stroke-width="0.1417" points="84.735,248.35 84.735,284.636 
		128.956,284.636 128.956,248.35 	"/>
	<polygon display="inline" fill="none" stroke="#000000" stroke-width="0.1417" points="158.986,248.35 158.986,284.636 
		203.207,284.636 203.207,248.35 	"/>
	<polygon display="inline" fill="none" stroke="#000000" stroke-width="0.1417" points="233.237,248.35 233.237,284.636 
		277.455,284.636 277.455,248.35 	"/>
	<polygon display="inline" fill="none" stroke="#000000" stroke-width="0.1417" points="401.986,248.35 401.986,284.636 
		446.207,284.636 446.207,248.35 	"/>
	<polygon display="inline" fill="none" stroke="#000000" stroke-width="0.1417" points="570.736,248.35 570.736,284.636 
		614.957,284.636 614.957,248.35 	"/>
	<polygon display="inline" fill="none" stroke="#000000" stroke-width="0.1417" points="651.736,248.35 651.736,284.636 
		695.957,284.636 695.957,248.35 	"/>
	<polygon display="inline" fill="none" stroke="#000000" stroke-width="0.1417" points="719.236,248.35 719.236,284.636 
		763.457,284.636 763.457,248.35 	"/>
	<polygon display="inline" fill="none" stroke="#000000" stroke-width="0.1417" points="773.236,248.35 773.236,284.636 
		817.457,284.636 817.457,248.35 	"/>
	<polygon display="inline" fill="none" stroke="#000000" stroke-width="0.1417" points="827.236,248.35 827.236,284.636 
		871.457,284.636 871.457,248.35 	"/>
	<polygon display="inline" fill="none" stroke="#000000" stroke-width="0.1417" points="28.219,194.564 28.219,230.423 
		72.014,230.423 72.014,194.564 	"/>
	<polygon display="inline" fill="none" stroke="#000000" stroke-width="0.1417" points="95.717,194.564 95.717,230.423 
		139.516,230.423 139.516,194.564 	"/>
	<polygon display="inline" fill="none" stroke="#000000" stroke-width="0.1417" points="149.717,194.564 149.717,230.423 
		193.513,230.423 193.513,194.564 	"/>
	<polygon display="inline" fill="none" stroke="#000000" stroke-width="0.1417" points="203.72,194.564 203.72,230.423 
		247.513,230.423 247.513,194.564 	"/>
	<polygon display="inline" fill="none" stroke="#000000" stroke-width="0.1417" points="257.72,194.564 257.72,230.423 
		301.512,230.423 301.512,194.564 	"/>
	<polygon display="inline" fill="none" stroke="#000000" stroke-width="0.1417" points="311.717,194.564 311.717,230.423 
		355.512,230.423 355.512,194.564 	"/>
	<polygon display="inline" fill="none" stroke="#000000" stroke-width="0.1417" points="365.717,194.564 365.717,230.423 
		409.512,230.423 409.512,194.564 	"/>
	<polygon display="inline" fill="none" stroke="#000000" stroke-width="0.1417" points="419.72,194.564 419.72,230.423 
		463.516,230.423 463.516,194.564 	"/>
	<polygon display="inline" fill="none" stroke="#000000" stroke-width="0.1417" points="473.721,194.564 473.721,230.423 
		517.516,230.423 517.516,194.564 	"/>
	<polygon display="inline" fill="none" stroke="#000000" stroke-width="0.1417" points="527.721,194.564 527.721,230.423 
		571.516,230.423 571.516,194.564 	"/>
	<polygon display="inline" fill="none" stroke="#000000" stroke-width="0.1417" points="581.721,194.564 581.721,230.423 
		625.516,230.423 625.516,194.564 	"/>
	<polygon display="inline" fill="none" stroke="#000000" stroke-width="0.1417" points="635.721,194.564 635.721,230.423 
		679.516,230.423 679.516,194.564 	"/>
	<polygon display="inline" fill="none" stroke="#000000" stroke-width="0.1417" points="703.219,194.564 703.219,230.423 
		747.014,230.423 747.014,194.564 	"/>
	<polygon display="inline" fill="none" stroke="#000000" stroke-width="0.1417" points="770.721,194.564 770.721,230.423 
		814.516,230.423 814.516,194.564 	"/>
	<polygon display="inline" fill="none" stroke="#000000" stroke-width="0.1417" points="824.721,194.564 824.721,230.423 
		868.516,230.423 868.516,194.564 	"/>
	<polygon display="inline" fill="none" stroke="#000000" stroke-width="0.1417" points="20.092,169.684 20.092,184.019 
		27.227,184.019 27.227,169.684 	"/>
	<polygon display="inline" fill="none" stroke="#000000" stroke-width="0.1417" points="100.009,169.684 100.009,184.019 
		107.141,184.019 107.141,169.684 	"/>
	<polygon display="inline" fill="none" stroke="#000000" stroke-width="0.1417" points="41.72,140.564 41.72,176.423 
		85.516,176.423 85.516,140.564 	"/>
	<polygon display="inline" fill="none" stroke="#000000" stroke-width="0.1417" points="122.72,140.564 122.72,176.423 
		166.515,176.423 166.515,140.564 	"/>
	<polygon display="inline" fill="none" stroke="#000000" stroke-width="0.1417" points="176.72,140.564 176.72,176.423 
		220.515,176.423 220.515,140.564 	"/>
	<polygon display="inline" fill="none" stroke="#000000" stroke-width="0.1417" points="230.72,140.564 230.72,176.423 
		274.513,176.423 274.513,140.564 	"/>
	<polygon display="inline" fill="none" stroke="#000000" stroke-width="0.1417" points="284.72,140.564 284.72,176.423 
		328.512,176.423 328.512,140.564 	"/>
	<polygon display="inline" fill="none" stroke="#000000" stroke-width="0.1417" points="338.72,140.564 338.72,176.423 
		382.515,176.423 382.515,140.564 	"/>
	<polygon display="inline" fill="none" stroke="#000000" stroke-width="0.1417" points="392.72,140.564 392.72,176.423 
		436.515,176.423 436.515,140.564 	"/>
	<polygon display="inline" fill="none" stroke="#000000" stroke-width="0.1417" points="446.721,140.564 446.721,176.423 
		490.516,176.423 490.516,140.564 	"/>
	<polygon display="inline" fill="none" stroke="#000000" stroke-width="0.1417" points="500.721,140.564 500.721,176.423 
		544.516,176.423 544.516,140.564 	"/>
	<polygon display="inline" fill="none" stroke="#000000" stroke-width="0.1417" points="554.721,140.564 554.721,176.423 
		598.516,176.423 598.516,140.564 	"/>
	<polygon display="inline" fill="none" stroke="#000000" stroke-width="0.1417" points="608.721,140.564 608.721,176.423 
		652.516,176.423 652.516,140.564 	"/>
	<polygon display="inline" fill="none" stroke="#000000" stroke-width="0.1417" points="662.721,140.564 662.721,176.423 
		706.516,176.423 706.516,140.564 	"/>
	<polygon display="inline" fill="none" stroke="#000000" stroke-width="0.1417" points="716.721,140.564 716.721,176.423 
		760.516,176.423 760.516,140.564 	"/>
	<polygon display="inline" fill="none" stroke="#000000" stroke-width="0.1417" points="824.721,140.564 824.721,176.423 
		868.516,176.423 868.516,140.564 	"/>
	<polygon display="inline" fill="none" stroke="#000000" stroke-width="0.1417" points="802.608,167.885 802.608,175.016 
		816.94,175.016 816.94,167.885 	"/>
	<polygon display="inline" fill="none" stroke="#000000" stroke-width="0.1417" points="774.69,109.595 774.69,153.39 
		810.547,153.39 810.547,109.595 	"/>
	<polygon display="inline" fill="none" stroke="#000000" stroke-width="0.1417" points="19.46,115.684 19.46,130.019 
		26.592,130.019 26.592,115.684 	"/>
	<polygon display="inline" fill="none" stroke="#000000" stroke-width="0.1417" points="87.14,115.684 87.14,130.019 
		94.272,130.019 94.272,115.684 	"/>
	<polygon display="inline" fill="none" stroke="#000000" stroke-width="0.1417" points="34.968,86.564 34.968,122.423 
		78.763,122.423 78.763,86.564 	"/>
	<polygon display="inline" fill="none" stroke="#000000" stroke-width="0.1417" points="109.219,86.564 109.219,122.423 
		153.014,122.423 153.014,86.564 	"/>
	<polygon display="inline" fill="none" stroke="#000000" stroke-width="0.1417" points="163.219,86.564 163.219,122.423 
		207.014,122.423 207.014,86.564 	"/>
	<polygon display="inline" fill="none" stroke="#000000" stroke-width="0.1417" points="217.219,86.564 217.219,122.423 
		261.014,122.423 261.014,86.564 	"/>
	<polygon display="inline" fill="none" stroke="#000000" stroke-width="0.1417" points="271.219,86.564 271.219,122.423 
		315.014,122.423 315.014,86.564 	"/>
	<polygon display="inline" fill="none" stroke="#000000" stroke-width="0.1417" points="325.218,86.564 325.218,122.423 
		369.014,122.423 369.014,86.564 	"/>
	<polygon display="inline" fill="none" stroke="#000000" stroke-width="0.1417" points="379.218,86.564 379.218,122.423 
		423.014,122.423 423.014,86.564 	"/>
	<polygon display="inline" fill="none" stroke="#000000" stroke-width="0.1417" points="433.218,86.564 433.218,122.423 
		477.014,122.423 477.014,86.564 	"/>
	<polygon display="inline" fill="none" stroke="#000000" stroke-width="0.1417" points="487.219,86.564 487.219,122.423 
		531.014,122.423 531.014,86.564 	"/>
	<polygon display="inline" fill="none" stroke="#000000" stroke-width="0.1417" points="541.219,86.564 541.219,122.423 
		585.014,122.423 585.014,86.564 	"/>
	<polygon display="inline" fill="none" stroke="#000000" stroke-width="0.1417" points="595.219,86.564 595.219,122.423 
		639.014,122.423 639.014,86.564 	"/>
	<polygon display="inline" fill="none" stroke="#000000" stroke-width="0.1417" points="649.219,86.564 649.219,122.423 
		693.014,122.423 693.014,86.564 	"/>
	<polygon display="inline" fill="none" stroke="#000000" stroke-width="0.1417" points="703.219,86.564 703.219,122.423 
		747.014,122.423 747.014,86.564 	"/>
	<polygon display="inline" fill="none" stroke="#000000" stroke-width="0.1417" points="824.721,86.564 824.721,122.423 
		868.516,122.423 868.516,86.564 	"/>
	<polygon display="inline" fill="none" stroke="#000000" stroke-width="0.1417" points="803.381,89.662 803.381,96.794 
		817.715,96.794 817.715,89.662 	"/>
	<polygon display="inline" fill="none" stroke="#000000" stroke-width="0.1417" points="734.959,61.684 734.959,76.019 
		742.094,76.019 742.094,61.684 	"/>
	<polygon display="inline" fill="none" stroke="#000000" stroke-width="0.1417" points="802.641,61.684 802.641,76.019 
		809.774,76.019 809.774,61.684 	"/>
	<polygon display="inline" fill="none" stroke="#000000" stroke-width="0.1417" points="21.469,32.564 21.469,68.423 65.265,68.423 
		65.265,32.564 	"/>
	<polygon display="inline" fill="none" stroke="#000000" stroke-width="0.1417" points="82.219,32.564 82.219,68.423 
		126.014,68.423 126.014,32.564 	"/>
	<polygon display="inline" fill="none" stroke="#000000" stroke-width="0.1417" points="136.219,32.564 136.219,68.423 
		180.014,68.423 180.014,32.564 	"/>
	<polygon display="inline" fill="none" stroke="#000000" stroke-width="0.1417" points="190.219,32.564 190.219,68.423 
		234.014,68.423 234.014,32.564 	"/>
	<polygon display="inline" fill="none" stroke="#000000" stroke-width="0.1417" points="244.219,32.564 244.219,68.423 
		288.014,68.423 288.014,32.564 	"/>
	<polygon display="inline" fill="none" stroke="#000000" stroke-width="0.1417" points="298.219,32.564 298.219,68.423 
		342.014,68.423 342.014,32.564 	"/>
	<polygon display="inline" fill="none" stroke="#000000" stroke-width="0.1417" points="352.218,32.564 352.218,68.423 
		396.014,68.423 396.014,32.564 	"/>
	<polygon display="inline" fill="none" stroke="#000000" stroke-width="0.1417" points="406.218,32.564 406.218,68.423 
		450.014,68.423 450.014,32.564 	"/>
	<polygon display="inline" fill="none" stroke="#000000" stroke-width="0.1417" points="460.219,32.564 460.219,68.423 
		504.014,68.423 504.014,32.564 	"/>
	<polygon display="inline" fill="none" stroke="#000000" stroke-width="0.1417" points="514.219,32.564 514.219,68.423 
		558.014,68.423 558.014,32.564 	"/>
	<polygon display="inline" fill="none" stroke="#000000" stroke-width="0.1417" points="568.219,32.564 568.219,68.423 
		612.014,68.423 612.014,32.564 	"/>
	<polygon display="inline" fill="none" stroke="#000000" stroke-width="0.1417" points="622.219,32.564 622.219,68.423 
		666.014,68.423 666.014,32.564 	"/>
	<polygon display="inline" fill="none" stroke="#000000" stroke-width="0.1417" points="676.219,32.564 676.219,68.423 
		720.014,68.423 720.014,32.564 	"/>
	<polygon display="inline" fill="none" stroke="#000000" stroke-width="0.1417" points="750.469,32.564 750.469,68.423 
		794.266,68.423 794.266,32.564 	"/>
	<polygon display="inline" fill="none" stroke="#000000" stroke-width="0.1417" points="824.721,32.564 824.721,68.423 
		868.516,68.423 868.516,32.564 	"/>
	<g id="default_plate_copy">
		<polygon display="inline" fill="none" stroke="#000000" stroke-width="0.1417" points="879.37,301.493 10.405,301.493 
			10.405,23.28 879.37,23.28 		"/>
	</g>
</g>
</svg>
